<svg xmlns="http://www.w3.org/2000/svg" viewBox="0 0 1600 1000" preserveAspectRatio="xMidYMid slice">
  <defs>
    <linearGradient id="sky" x1="0" x2="1" y1="0" y2="1">
      <stop offset="0" stop-color="#071021"/>
      <stop offset="0.48" stop-color="#11376c"/>
      <stop offset="1" stop-color="#020817"/>
    </linearGradient>
    <radialGradient id="aurora" cx="65%" cy="20%" r="55%">
      <stop offset="0" stop-color="#7dd3fc" stop-opacity="0.45"/>
      <stop offset="0.32" stop-color="#a78bfa" stop-opacity="0.22"/>
      <stop offset="1" stop-color="#000" stop-opacity="0"/>
    </radialGradient>
    <filter id="blur"><feGaussianBlur stdDeviation="18"/></filter>
  </defs>
  <rect width="1600" height="1000" fill="url(#sky)"/>
  <rect width="1600" height="1000" fill="url(#aurora)"/>
  <circle cx="1280" cy="130" r="150" fill="#bfdbfe" opacity="0.12" filter="url(#blur)"/>
  <path d="M0 735 L210 540 L410 750 L620 455 L850 770 L1040 575 L1240 750 L1460 500 L1600 700 L1600 1000 L0 1000 Z" fill="#07111f"/>
  <path d="M210 540 L270 650 L165 630 Z M620 455 L708 610 L560 590 Z M1460 500 L1515 625 L1408 605 Z" fill="#dbeafe" opacity="0.72"/>
  <path d="M0 786 C250 745 470 815 710 770 C960 725 1190 760 1600 710 L1600 1000 L0 1000 Z" fill="#020617" opacity="0.78"/>
  <path d="M0 805 C340 880 620 850 900 820 C1190 788 1380 830 1600 785 L1600 1000 L0 1000 Z" fill="#0b1324" opacity="0.92"/>
  <ellipse cx="760" cy="840" rx="650" ry="45" fill="#bfdbfe" opacity="0.12" filter="url(#blur)"/>
</svg>
